<svg width="28" height="20" viewBox="0 0 28 20" fill="none" xmlns="http://www.w3.org/2000/svg">
<path d="M9.31689 19.6317C9.31689 19.7682 9.41006 19.8935 9.5582 19.9573C9.70623 20.0211 9.88623 20.0129 10.0246 19.9358L13.1408 18.2038L9.31695 16.7202V19.6317H9.31689Z" fill="#3B59A8"/>
<path d="M27.8545 0.0978439C27.7689 0.0336123 27.6585 0 27.5468 0C27.4795 0 27.4123 0.0121557 27.3488 0.0375721L0.447108 10.7791C0.172143 10.8891 -0.00185179 11.1177 1.48712e-05 11.3677C0.00188153 11.6174 0.178818 11.8444 0.455762 11.952L7.54578 14.7019L21.7222 5.21727L9.30242 15.3832L18.1348 18.8089C18.2433 18.8512 18.3618 18.8722 18.479 18.8722C18.579 18.8722 18.678 18.8574 18.7723 18.8272C18.978 18.761 19.1415 18.6284 19.2231 18.4609L27.9679 0.503677C28.0372 0.362368 27.992 0.200799 27.8545 0.0978439Z" fill="#3B59A8"/>
</svg>
